<svg viewBox="149.11 168.41 155.824 69.564" xmlns="http://www.w3.org/2000/svg">
  <path d="M 195.959 204.799 L 165.526 173.975 L 149.11 190.182 L 179.543 221.007 L 195.959 204.799 Z" fill="#1971FB"></path>
  <path d="M 295.028 227.786 C 288.639 234.356 280.146 237.974 271.112 237.974 C 262.078 237.974 253.585 234.356 247.197 227.787 C 247.197 227.786 215.636 195.314 215.636 195.314 C 211.411 190.971 204.538 190.971 200.315 195.314 C 198.268 197.418 197.142 200.216 197.142 203.192 C 197.142 206.167 198.268 208.965 200.315 211.069 C 202.427 213.241 205.201 214.327 207.975 214.327 C 210.749 214.327 213.523 213.24 215.635 211.069 L 217.875 208.765 L 234.126 225.487 L 231.89 227.786 C 225.503 234.356 217.01 237.974 207.975 237.974 C 198.941 237.974 190.447 234.356 184.059 227.786 C 177.671 221.216 174.153 212.482 174.153 203.192 C 174.153 193.901 177.671 185.166 184.059 178.597 C 190.447 172.028 198.941 168.41 207.975 168.41 C 217.009 168.41 225.502 172.027 231.889 178.596 L 255.793 203.189 L 263.429 211.046 L 263.451 211.069 C 267.676 215.413 274.548 215.413 278.772 211.069 C 280.818 208.965 281.945 206.167 281.945 203.192 C 281.945 200.216 280.818 197.418 278.772 195.314 C 274.548 190.971 267.676 190.971 263.451 195.314 L 261.211 197.618 L 244.959 180.896 L 247.196 178.597 C 253.584 172.028 262.077 168.41 271.111 168.41 C 280.145 168.41 288.639 172.028 295.027 178.597 C 301.415 185.166 304.934 193.901 304.934 203.192 C 304.934 212.482 301.415 221.216 295.028 227.786 Z" fill="#1971FB"></path>
</svg>