<svg viewBox="147.432 158.233 163.372 158.613" xmlns="http://www.w3.org/2000/svg">
  <defs></defs>
  <path d="M 195.959 204.799 L 165.526 173.975 L 149.11 190.182 L 179.543 221.007 L 195.959 204.799 Z" fill="#1971FB"></path>
  <path d="M 295.028 227.786 C 288.639 234.356 280.146 237.974 271.112 237.974 C 262.078 237.974 253.585 234.356 247.197 227.787 C 247.197 227.786 215.636 195.314 215.636 195.314 C 211.411 190.971 204.538 190.971 200.315 195.314 C 198.268 197.418 197.142 200.216 197.142 203.192 C 197.142 206.167 198.268 208.965 200.315 211.069 C 202.427 213.241 205.201 214.327 207.975 214.327 C 210.749 214.327 213.523 213.24 215.635 211.069 L 217.875 208.765 L 234.126 225.487 L 231.89 227.786 C 225.503 234.356 217.01 237.974 207.975 237.974 C 198.941 237.974 190.447 234.356 184.059 227.786 C 177.671 221.216 174.153 212.482 174.153 203.192 C 174.153 193.901 177.671 185.166 184.059 178.597 C 190.447 172.028 198.941 168.41 207.975 168.41 C 217.009 168.41 225.502 172.027 231.889 178.596 L 255.793 203.189 L 263.429 211.046 L 263.451 211.069 C 267.676 215.413 274.548 215.413 278.772 211.069 C 280.818 208.965 281.945 206.167 281.945 203.192 C 281.945 200.216 280.818 197.418 278.772 195.314 C 274.548 190.971 267.676 190.971 263.451 195.314 L 261.211 197.618 L 244.959 180.896 L 247.196 178.597 C 253.584 172.028 262.077 168.41 271.111 168.41 C 280.145 168.41 288.639 172.028 295.027 178.597 C 301.415 185.166 304.934 193.901 304.934 203.192 C 304.934 212.482 301.415 221.216 295.028 227.786 Z" fill="#1971FB"></path>
  <path d="M 205.251 278.656 L 205.251 298.941 C 204.454 299.902 203.223 300.945 201.559 302.07 C 199.895 303.172 197.751 304.121 195.126 304.918 C 192.501 305.715 189.325 306.113 185.598 306.113 C 182.294 306.113 179.282 305.574 176.563 304.496 C 173.844 303.394 171.501 301.789 169.532 299.68 C 167.587 297.57 166.087 294.992 165.032 291.945 C 163.977 288.875 163.45 285.371 163.45 281.433 L 163.45 278.234 C 163.45 274.297 163.954 270.793 164.962 267.722 C 165.993 264.652 167.458 262.062 169.356 259.953 C 171.255 257.843 173.516 256.238 176.141 255.136 C 178.766 254.035 181.684 253.484 184.895 253.484 C 189.348 253.484 193.005 254.21 195.864 255.663 C 198.723 257.093 200.903 259.085 202.403 261.64 C 203.926 264.171 204.864 267.078 205.216 270.359 L 194.985 270.359 C 194.727 268.625 194.235 267.113 193.508 265.824 C 192.782 264.535 191.739 263.527 190.38 262.8 C 189.044 262.074 187.309 261.71 185.176 261.71 C 183.419 261.71 181.848 262.074 180.466 262.8 C 179.106 263.503 177.958 264.546 177.02 265.929 C 176.083 267.312 175.368 269.023 174.876 271.062 C 174.383 273.101 174.137 275.469 174.137 278.164 L 174.137 281.433 C 174.137 284.105 174.395 286.472 174.911 288.535 C 175.426 290.574 176.188 292.297 177.196 293.703 C 178.227 295.086 179.493 296.129 180.993 296.832 C 182.493 297.535 184.239 297.887 186.231 297.887 C 187.895 297.887 189.278 297.746 190.38 297.465 C 191.505 297.183 192.407 296.844 193.087 296.445 C 193.79 296.023 194.329 295.625 194.704 295.25 L 194.704 286.18 L 185.071 286.18 L 185.071 278.656 L 205.251 278.656 Z M 223.813 267.37 L 223.813 305.41 L 213.653 305.41 L 213.653 267.37 L 223.813 267.37 Z M 213.02 257.456 C 213.02 255.98 213.536 254.761 214.567 253.8 C 215.598 252.839 216.981 252.359 218.716 252.359 C 220.426 252.359 221.798 252.839 222.829 253.8 C 223.883 254.761 224.411 255.98 224.411 257.456 C 224.411 258.933 223.883 260.152 222.829 261.113 C 221.798 262.074 220.426 262.554 218.716 262.554 C 216.981 262.554 215.598 262.074 214.567 261.113 C 213.536 260.152 213.02 258.933 213.02 257.456 Z M 245.118 298.027 L 253.555 267.37 L 264.137 267.37 L 251.305 305.41 L 244.907 305.41 L 245.118 298.027 Z M 239.317 267.37 L 247.79 298.062 L 247.966 305.41 L 241.532 305.41 L 228.7 267.37 L 239.317 267.37 Z M 278.587 275.492 L 278.587 305.41 L 268.462 305.41 L 268.462 267.37 L 277.954 267.37 L 278.587 275.492 Z M 277.11 285.055 L 274.368 285.055 C 274.368 282.242 274.731 279.711 275.458 277.461 C 276.184 275.187 277.204 273.254 278.516 271.66 C 279.829 270.043 281.387 268.812 283.192 267.968 C 285.02 267.101 287.059 266.667 289.309 266.667 C 291.09 266.667 292.719 266.925 294.196 267.441 C 295.672 267.956 296.938 268.777 297.993 269.902 C 299.071 271.027 299.891 272.515 300.454 274.367 C 301.04 276.219 301.333 278.48 301.333 281.152 L 301.333 305.41 L 291.137 305.41 L 291.137 281.117 C 291.137 279.43 290.903 278.117 290.434 277.18 C 289.965 276.242 289.274 275.586 288.36 275.211 C 287.469 274.812 286.368 274.613 285.055 274.613 C 283.696 274.613 282.512 274.883 281.505 275.422 C 280.52 275.961 279.7 276.711 279.044 277.672 C 278.411 278.609 277.93 279.711 277.602 280.976 C 277.274 282.242 277.11 283.601 277.11 285.055 Z" fill="black"></path>
</svg>
